#Comment line ignore any data following # character 
#Hierarchical Translation and Rotation (.htr) file 
[Header]	
#Header keywords are followed by a single value 
FileType HTR		#Single word string
DataType HTRS		#Translation followed by rotation and scale data
FileVersion 1		#integer
NumSegments 64		#integer
NumFrames 3		#integer
DataFrameRate 30		#integer, data frame rate in this file
EulerRotationOrder ZYX
CalibrationUnits mm
RotationUnits Degrees
GlobalAxisofGravity Y
BoneLengthAxis Y
ScaleFactor 1.00
[SegmentNames&Hierarchy]
#CHILD	PARENT
Pinger_Root GLOBAL
Pelvis Pinger_Root
L_Hip Pelvis
R_Hip Pelvis
Rear_Leg01 Pelvis
Spine1 Pelvis
L_Leg01 L_Hip
L_Leg02 L_Leg01
L_Leg03 L_Leg02
L_Foot L_Leg03
L_Toe1_01 L_Foot
L_Toe2_01 L_Foot
L_Toe3_01 L_Foot
planeAlignerLeft L_Foot
L_Toe1_02 L_Toe1_01
L_Toe1_03 L_Toe1_02
L_Toe2_02 L_Toe2_01
L_Toe2_03 L_Toe2_02
L_Toe3_02 L_Toe3_01
L_Toe3_03 L_Toe3_02
planeLockWeightLeft planeAlignerLeft
R_Leg01 R_Hip
R_Leg02 R_Leg01
R_Leg03 R_Leg02
R_Foot R_Leg03
planeAlignerRight R_Foot
R_Toe1_01 R_Foot
R_Toe2_01 R_Foot
R_Toe3_01 R_Foot
planeLockWeightRight planeAlignerRight
R_Toe1_02 R_Toe1_01
R_Toe1_03 R_Toe1_02
R_Toe2_02 R_Toe2_01
R_Toe2_03 R_Toe2_02
R_Toe3_02 R_Toe3_01
R_Toe3_03 R_Toe3_02
Rear_Leg02 Rear_Leg01
Rear_Leg03 Rear_Leg02
Rear_Leg04 Rear_Leg03
Rear_Foot Rear_Leg04
planeAlignerCenter Rear_Foot
Rear_Toe1_01 Rear_Foot
Rear_Toe2_01 Rear_Foot
Rear_Toe3_01 Rear_Foot
planeLockWeightCenter planeAlignerCenter
Rear_Toe1_02 Rear_Toe1_01
Rear_Toe1_03 Rear_Toe1_02
Rear_Toe2_02 Rear_Toe2_01
Rear_Toe2_03 Rear_Toe2_02
Rear_Toe3_02 Rear_Toe3_01
Rear_Toe3_03 Rear_Toe3_02
Back_Bone Spine1
Head Spine1
Motor_Bone Back_Bone
Ping_Mechanism Back_Bone
BN_LookIK Head
bottomMouth Head
L_Mouth01 Head
L_mouthFront Head
mouthGun Head
R_Mouth01 Head
R_mouthFront Head
TopMouth Head
weapon_bone Head
[BasePosition]
#SegmentName Tx, Ty, Tz, Rx, Ry, Rz, BoneLength
Pinger_Root 0.000000 0.000000 0.000000 -90.000000 0.000000 0.000000 10.000000 
Pelvis 0.000000 0.000000 0.000000 0.000000 0.000000 0.000000 10.000000 
L_Hip 0.000000 0.000000 0.000000 0.000000 0.000000 0.000000 10.000000 
R_Hip 0.000000 0.000000 0.000000 0.000000 0.000000 0.000000 10.000000 
Rear_Leg01 0.000000 0.000000 0.000000 0.000000 0.000000 0.000000 10.000000 
Spine1 0.000000 0.000000 0.000000 0.000000 0.000000 0.000000 10.000000 
L_Leg01 0.000000 0.000000 0.000000 0.000000 0.000000 0.000000 10.000000 
L_Leg02 0.000000 0.000000 0.000000 0.000000 0.000000 0.000000 10.000000 
L_Leg03 0.000000 0.000000 0.000000 0.000000 0.000000 0.000000 10.000000 
L_Foot 0.000000 0.000000 0.000000 0.000000 0.000000 0.000000 10.000000 
L_Toe1_01 0.000000 0.000000 0.000000 0.000000 0.000000 0.000000 10.000000 
L_Toe2_01 0.000000 0.000000 0.000000 0.000000 0.000000 0.000000 10.000000 
L_Toe3_01 0.000000 0.000000 0.000000 0.000000 0.000000 0.000000 10.000000 
planeAlignerLeft 0.000000 0.000000 0.000000 0.000000 0.000000 0.000000 10.000000 
L_Toe1_02 0.000000 0.000000 0.000000 0.000000 0.000000 0.000000 10.000000 
L_Toe1_03 0.000000 0.000000 0.000000 0.000000 0.000000 0.000000 10.000000 
L_Toe2_02 0.000000 0.000000 0.000000 0.000000 0.000000 0.000000 10.000000 
L_Toe2_03 0.000000 0.000000 0.000000 0.000000 0.000000 0.000000 10.000000 
L_Toe3_02 0.000000 0.000000 0.000000 0.000000 0.000000 0.000000 10.000000 
L_Toe3_03 0.000000 0.000000 0.000000 0.000000 0.000000 0.000000 10.000000 
planeLockWeightLeft 0.000000 0.000000 0.000000 0.000000 0.000000 0.000000 10.000000 
R_Leg01 0.000000 0.000000 0.000000 0.000000 0.000000 0.000000 10.000000 
R_Leg02 0.000000 0.000000 0.000000 0.000000 0.000000 0.000000 10.000000 
R_Leg03 0.000000 0.000000 0.000000 0.000000 0.000000 0.000000 10.000000 
R_Foot 0.000000 0.000000 0.000000 0.000000 0.000000 0.000000 10.000000 
planeAlignerRight 0.000000 0.000000 0.000000 0.000000 0.000000 0.000000 10.000000 
R_Toe1_01 0.000000 0.000000 0.000000 0.000000 0.000000 0.000000 10.000000 
R_Toe2_01 0.000000 0.000000 0.000000 0.000000 0.000000 0.000000 10.000000 
R_Toe3_01 0.000000 0.000000 0.000000 0.000000 0.000000 0.000000 10.000000 
planeLockWeightRight 0.000000 0.000000 0.000000 0.000000 0.000000 0.000000 10.000000 
R_Toe1_02 0.000000 0.000000 0.000000 0.000000 0.000000 0.000000 10.000000 
R_Toe1_03 0.000000 0.000000 0.000000 0.000000 0.000000 0.000000 10.000000 
R_Toe2_02 0.000000 0.000000 0.000000 0.000000 0.000000 0.000000 10.000000 
R_Toe2_03 0.000000 0.000000 0.000000 0.000000 0.000000 0.000000 10.000000 
R_Toe3_02 0.000000 0.000000 0.000000 0.000000 0.000000 0.000000 10.000000 
R_Toe3_03 0.000000 0.000000 0.000000 0.000000 0.000000 0.000000 10.000000 
Rear_Leg02 0.000000 0.000000 0.000000 0.000000 0.000000 0.000000 10.000000 
Rear_Leg03 0.000000 0.000000 0.000000 0.000000 0.000000 0.000000 10.000000 
Rear_Leg04 0.000000 0.000000 0.000000 0.000000 0.000000 0.000000 10.000000 
Rear_Foot 0.000000 0.000000 0.000000 0.000000 0.000000 0.000000 10.000000 
planeAlignerCenter 0.000000 0.000000 0.000000 0.000000 0.000000 0.000000 10.000000 
Rear_Toe1_01 0.000000 0.000000 0.000000 0.000000 0.000000 0.000000 10.000000 
Rear_Toe2_01 0.000000 0.000000 0.000000 0.000000 0.000000 0.000000 10.000000 
Rear_Toe3_01 0.000000 0.000000 0.000000 0.000000 0.000000 0.000000 10.000000 
planeLockWeightCenter 0.000000 0.000000 0.000000 0.000000 0.000000 0.000000 10.000000 
Rear_Toe1_02 0.000000 0.000000 0.000000 0.000000 0.000000 0.000000 10.000000 
Rear_Toe1_03 0.000000 0.000000 0.000000 0.000000 0.000000 0.000000 10.000000 
Rear_Toe2_02 0.000000 0.000000 0.000000 0.000000 0.000000 0.000000 10.000000 
Rear_Toe2_03 0.000000 0.000000 0.000000 0.000000 0.000000 0.000000 10.000000 
Rear_Toe3_02 0.000000 0.000000 0.000000 0.000000 0.000000 0.000000 10.000000 
Rear_Toe3_03 0.000000 0.000000 0.000000 0.000000 0.000000 0.000000 10.000000 
Back_Bone 0.000000 0.000000 0.000000 0.000000 0.000000 0.000000 10.000000 
Head 0.000000 0.000000 0.000000 0.000000 0.000000 0.000000 10.000000 
Motor_Bone 0.000000 0.000000 0.000000 0.000000 0.000000 0.000000 10.000000 
Ping_Mechanism 0.000000 0.000000 0.000000 0.000000 0.000000 0.000000 10.000000 
BN_LookIK 0.000000 0.000000 0.000000 0.000000 0.000000 0.000000 10.000000 
bottomMouth 0.000000 0.000000 0.000000 0.000000 0.000000 0.000000 10.000000 
L_Mouth01 0.000000 0.000000 0.000000 0.000000 0.000000 0.000000 10.000000 
L_mouthFront 0.000000 0.000000 0.000000 0.000000 0.000000 0.000000 10.000000 
mouthGun 0.000000 0.000000 0.000000 0.000000 0.000000 0.000000 10.000000 
R_Mouth01 0.000000 0.000000 0.000000 0.000000 0.000000 0.000000 10.000000 
R_mouthFront 0.000000 0.000000 0.000000 0.000000 0.000000 0.000000 10.000000 
TopMouth 0.000000 0.000000 0.000000 0.000000 0.000000 0.000000 10.000000 
weapon_bone 0.000000 0.000000 0.000000 0.000000 0.000000 0.000000 10.000000 
#Beginning of Data. Separated by tabs
#Fr	Tx	Ty	Tz	Rx	Ry	Rz	SF
[Pinger_Root]
25 0.000000 -3111.110596 0.000000 -0.000075 -0.000000 -0.000020 3111.110596
26 0.000000 -3240.740234 0.000000 -0.000075 -0.000000 -0.000020 3240.740234
27 0.000000 -3370.369629 0.000000 -0.000075 -0.000000 -0.000020 3370.369629
[Pelvis]
25 -136.619324 -10.763907 4921.325684 -121.011253 -66.110794 102.059212 4923.233398
26 -79.542580 8.248495 4938.839355 -118.090355 -66.539932 98.052223 4939.486816
27 -19.644760 17.291018 4960.077637 -115.698929 -67.009750 94.872993 4960.146973
[L_Hip]
25 5.766392 125.831482 872.656799 -178.250168 -81.786369 87.376007 881.701050
26 5.766392 125.831482 872.656799 -178.250168 -81.786369 87.376007 881.701050
27 5.766392 125.831482 872.656799 -178.250168 -81.786369 87.376007 881.701050
[R_Hip]
25 5.765438 125.836372 -872.654907 -1.748770 81.786041 87.376961 881.699829
26 5.765438 125.836372 -872.654907 -1.748770 81.786041 87.376961 881.699829
27 5.765438 125.836372 -872.654907 -1.748770 81.786041 87.376961 881.699829
[Rear_Leg01]
25 -192.298416 -925.602966 -0.001907 159.354324 -1.179883 173.326706 945.367432
26 -192.298416 -925.602966 -0.001907 158.422989 -1.723583 168.882843 945.367432
27 -192.298416 -925.602966 -0.001907 157.595306 -2.826416 164.248901 945.367432
[Spine1]
25 290.604584 5.007505 0.000477 19.567209 6.254855 -3.069026 290.647736
26 290.604584 5.007505 0.000477 20.087849 4.573625 -3.169647 290.647736
27 290.604584 5.007505 0.000477 20.378347 3.142840 -3.000663 290.647736
[L_Leg01]
25 761.932007 -0.002384 -0.069261 6.998069 -42.562645 -9.604632 761.932068
26 761.932007 -0.002384 -0.069261 6.269864 -42.297176 -9.624967 761.932068
27 761.932007 -0.002384 -0.069261 7.057443 -42.378445 -10.132345 761.932068
[L_Leg02]
25 1441.140503 -0.000954 -0.000715 -1.136809 0.396794 -108.915718 1441.140503
26 1441.140503 -0.000954 -0.000715 -1.371761 0.544496 -105.865471 1441.140503
27 1441.140503 -0.000954 -0.000715 -1.421914 0.637665 -102.150040 1441.140503
[L_Leg03]
25 1686.963989 -0.000715 -0.000954 0.026235 -0.006594 103.361839 1686.963989
26 1686.963989 -0.000715 -0.000954 0.040097 -0.010429 99.712250 1686.963989
27 1686.963989 -0.000715 -0.000954 0.054176 -0.013374 96.062668 1686.963989
[L_Foot]
25 3041.570068 -30.715107 11.297464 -4.342791 5.495002 34.947269 3041.746094
26 3041.570068 -30.715107 11.297464 -5.239943 5.975969 34.605236 3041.746094
27 3041.570068 -30.715107 11.297464 -6.645313 7.251045 34.040524 3041.746094
[L_Toe1_01]
25 -188.216690 -224.732346 -21.137953 88.800667 -1.558174 -145.597626 293.899567
26 -188.216690 -224.732346 -21.137953 88.807510 -1.560133 -145.572083 293.899567
27 -188.216690 -224.732346 -21.137953 88.814362 -1.562096 -145.546539 293.899567
[L_Toe2_01]
25 200.746536 -219.926590 148.838394 -74.724228 -10.405660 -59.462898 332.896027
26 200.746536 -219.926590 148.838394 -74.739929 -10.373963 -59.439590 332.896027
27 200.746536 -219.926590 148.838394 -74.755592 -10.342258 -59.416302 332.896027
[L_Toe3_01]
25 188.832520 -219.859131 -191.078659 -109.697830 12.799916 -61.276443 347.140900
26 188.832520 -219.859131 -191.078659 -109.758827 12.705723 -61.564560 347.140900
27 188.832520 -219.859131 -191.078659 -109.698135 12.655006 -61.390560 347.140900
[planeAlignerLeft]
25 -79.902184 -809.789795 0.041657 0.000000 -90.000000 -90.001900 813.722168
26 -79.137840 -810.535767 0.042343 0.000000 -90.000000 -90.001900 814.389954
27 -78.373489 -811.281860 0.043030 0.000000 -90.000000 -90.001900 815.058655
[L_Toe1_02]
25 413.761139 0.000477 0.000000 0.001386 -25.657793 0.001386 413.761139
26 413.761139 0.000477 0.000000 0.001387 -25.601992 0.001387 413.761139
27 413.761139 0.000477 0.000000 0.001387 -25.546190 0.001387 413.761139
[L_Toe1_03]
25 464.317322 0.000358 -0.000089 0.003152 46.280045 0.003152 464.317322
26 464.317322 0.000358 -0.000089 0.003124 45.860855 0.003124 464.317322
27 464.317322 0.000358 -0.000089 0.003163 46.441433 0.003163 464.317322
[L_Toe2_02]
25 342.235809 -0.000477 0.000238 0.001184 -74.598457 0.001184 342.235809
26 342.235809 -0.000477 0.000238 0.001184 -74.454460 0.001184 342.235809
27 342.235809 -0.000477 0.000238 0.001185 -74.310425 0.001185 342.235809
[L_Toe2_03]
25 420.210846 -0.000715 0.000000 -179.953018 88.648537 -179.949524 420.210846
26 420.210846 -0.000715 0.000000 -179.940140 88.931007 -179.936646 420.210846
27 420.210846 -0.000715 0.000000 -179.918060 89.213417 -179.914566 420.210846
[L_Toe3_02]
25 329.270111 0.000954 0.000000 0.001180 -78.414505 0.001180 329.270111
26 329.270111 0.000954 0.000000 0.001180 -78.259567 0.001180 329.270111
27 329.270111 0.000954 0.000000 0.001180 -78.104591 0.001180 329.270111
[L_Toe3_03]
25 439.137451 -0.001907 0.000954 -179.985046 86.056877 -179.981552 439.137451
26 439.137451 -0.001907 0.000954 -179.983917 86.308167 -179.980408 439.137451
27 439.137451 -0.001907 0.000954 -179.982605 86.559288 -179.979111 439.137451
[planeLockWeightLeft]
25 999.998901 0.098179 0.076063 -0.011826 -0.004376 0.005620 999.998962
26 999.998901 0.098184 0.076054 -0.011826 -0.004376 0.005620 999.998962
27 999.998901 0.098190 0.076046 -0.011826 -0.004376 0.005620 999.998962
[R_Leg01]
25 761.455627 -0.001907 -0.000358 84.507271 -35.264618 83.642220 761.455688
26 761.455627 -0.001907 -0.000358 86.570633 -28.219120 83.771919 761.455688
27 761.455627 -0.001907 -0.000358 85.986420 -29.277950 83.640053 761.455688
[R_Leg02]
25 1441.140625 0.000000 -0.000238 -0.180934 0.003383 -117.709816 1441.140625
26 1441.140625 0.000000 -0.000238 0.187883 -0.026820 -98.589905 1441.140625
27 1441.140625 0.000000 -0.000238 0.187216 -0.021173 -97.778374 1441.140625
[R_Leg03]
25 1686.963989 0.000954 0.001431 0.018548 -0.007841 115.830215 1686.963989
26 1686.963989 0.000954 0.001431 -0.056531 0.013242 95.549507 1686.963989
27 1686.963989 0.000954 0.001431 -0.049349 0.013639 97.254410 1686.963989
[R_Foot]
25 3041.560059 -30.531288 -11.204481 19.304686 -20.587770 59.037041 3041.734131
26 3041.560059 -30.531288 -11.204481 15.453215 -20.031248 81.939102 3041.734131
27 3041.560059 -30.531288 -11.204481 14.460378 -19.610233 78.733002 3041.734131
[planeAlignerRight]
25 -62.563419 -817.885620 -20.831797 0.000000 -89.960434 -90.005180 820.539490
26 170.835587 -838.286255 -51.296577 0.000000 -89.960434 -90.005180 857.053101
27 109.707680 -769.202637 -30.325436 0.000000 -89.960434 -90.005180 777.578369
[R_Toe1_01]
25 -188.383347 -224.864899 21.052242 90.696762 3.132432 -146.894257 294.101532
26 -188.383347 -224.864899 21.052242 90.116211 4.972117 -148.508316 294.101532
27 -188.383347 -224.864899 21.052242 90.443275 3.713613 -156.181412 294.101532
[R_Toe2_01]
25 200.637817 -220.002121 -148.787384 -106.794395 8.414922 -70.764534 332.857574
26 200.637817 -220.002121 -148.787384 -105.116371 8.421907 -61.351395 332.857574
27 200.637817 -220.002121 -148.787384 -103.959946 10.133291 -54.324883 332.857574
[R_Toe3_01]
25 188.606735 -220.092957 191.126343 -69.221024 -6.810065 -71.481117 347.192566
26 188.606735 -220.092957 191.126343 -72.365730 -4.657583 -62.819813 347.192566
27 188.606735 -220.092957 191.126343 -73.008858 -9.151248 -56.159500 347.192566
[planeLockWeightRight]
25 895.998474 -0.000000 0.076370 -0.011823 -0.004379 -0.000027 895.998474
26 999.998901 -0.000916 0.076089 -0.011823 -0.004379 -0.000027 999.998962
27 999.999329 -0.000905 0.076085 -0.011823 -0.004379 -0.000027 999.999329
[R_Toe1_02]
25 413.762085 0.000477 -0.000119 0.001429 -20.473446 0.001429 413.762085
26 413.762085 0.000477 -0.000119 0.001447 -18.350996 0.001447 413.762085
27 413.762085 0.000477 -0.000119 0.001419 -21.564932 0.001419 413.762085
[R_Toe1_03]
25 464.317810 0.000000 0.001088 -0.058641 88.842255 -0.055144 464.317810
26 464.317810 0.000000 0.001088 -179.990875 83.937317 -179.987381 464.317810
27 464.317810 0.000000 0.001088 -0.014083 84.657822 -0.010582 464.317810
[R_Toe2_02]
25 342.234741 -0.000954 0.000238 -0.002334 -78.684532 -0.002334 342.234741
26 342.234741 -0.000954 0.000238 0.001208 -62.515602 0.001208 342.234741
27 342.234741 -0.000954 0.000238 0.001207 -63.002136 0.001207 342.234741
[R_Toe2_03]
25 420.210846 0.000715 -0.000268 -179.994614 71.708900 -179.998169 420.210846
26 420.210846 0.000715 -0.000268 -0.004436 64.895241 -0.000853 420.210846
27 420.210846 0.000715 -0.000268 -0.004525 65.752769 -0.000948 420.210846
[R_Toe3_02]
25 329.270355 -0.000477 -0.000954 0.001176 -82.662041 0.001176 329.270355
26 329.270355 -0.000477 -0.000954 0.001191 -70.658844 0.001191 329.270355
27 329.270355 -0.000477 -0.000954 0.001191 -70.355942 0.001191 329.270355
[R_Toe3_03]
25 439.137939 0.000238 0.001431 -179.998749 68.160095 -179.995178 439.137939
26 439.137939 0.000238 0.001431 0.008868 74.790382 0.008868 439.137939
27 439.137939 0.000238 0.001431 0.008516 74.156624 0.008516 439.137939
[Rear_Leg02]
25 1162.777710 -0.029802 0.005960 -6.715858 9.768641 -115.481468 1162.777710
26 1162.777710 -0.029802 0.005960 -6.916955 9.925116 -120.066788 1162.777710
27 1162.777710 -0.029802 0.005960 -6.840718 9.932631 -124.335854 1162.777710
[Rear_Leg03]
25 607.192505 -0.013351 -0.073195 0.010305 -0.005474 72.314407 607.192505
26 607.192505 -0.013351 -0.073195 0.010293 -0.005496 72.553307 607.192505
27 607.192505 -0.013351 -0.073195 0.010305 -0.005473 72.304413 607.192505
[Rear_Leg04]
25 995.874512 -0.020504 -0.011921 -0.041561 -0.015547 76.342186 995.874573
26 995.874512 -0.020504 -0.011921 -0.041602 -0.015437 76.644470 995.874573
27 995.874512 -0.020504 -0.011921 -0.041574 -0.015510 76.442894 995.874573
[Rear_Foot]
25 3096.176270 -0.067472 -0.041425 59.091602 76.342484 -138.153061 3096.176270
26 3096.176270 -0.067472 -0.041425 61.585537 76.551262 -136.063644 3096.176270
27 3096.176270 -0.067472 -0.041425 64.147522 76.738266 -133.905960 3096.176270
[planeAlignerCenter]
25 1.035728 26.402237 -828.257324 0.000009 0.000003 -179.999985 828.678650
26 1.037674 34.384430 -825.895874 0.000009 0.000003 -179.999985 826.611938
27 1.037588 41.015583 -817.713257 0.000009 0.000003 -179.999985 818.741882
[Rear_Toe1_01]
25 0.653352 83.966492 -371.173737 0.063879 29.024244 90.028076 380.553192
26 0.653352 83.966492 -371.173737 0.066340 28.932152 90.030762 380.553192
27 0.653352 83.966492 -371.173737 0.068795 28.840048 90.033409 380.553192
[Rear_Toe2_01]
25 178.200760 -294.826019 -362.060547 0.353576 54.247551 -71.177872 499.765686
26 178.200760 -294.826019 -362.060547 0.477899 54.123409 -70.960289 499.765686
27 178.200760 -294.826019 -362.060547 0.601037 53.998974 -70.743790 499.765686
[Rear_Toe3_01]
25 -153.359680 -308.780914 -362.060852 -0.555163 54.233730 -111.164902 499.952881
26 -153.359680 -308.780914 -362.060852 -0.698091 54.107548 -111.409103 499.952881
27 -153.359680 -308.780914 -362.060852 -0.839672 53.980972 -111.651993 499.952881
[planeLockWeightCenter]
25 1000.000122 -0.000025 0.076241 -0.011814 -0.004373 -0.000015 1000.000122
26 1000.000122 -0.000008 0.076241 -0.011814 -0.004373 -0.000015 1000.000122
27 1000.000122 0.000008 0.076242 -0.011814 -0.004373 -0.000015 1000.000122
[Rear_Toe1_02]
25 379.707825 0.194073 0.000477 -0.000767 -33.624729 0.000838 379.707855
26 379.707825 0.194073 0.000477 -0.000767 -33.624729 0.000838 379.707855
27 379.707825 0.194073 0.000477 -0.000767 -33.624729 0.000838 379.707855
[Rear_Toe1_03]
25 500.129700 0.165701 0.000119 0.007121 71.027016 0.007121 500.129761
26 500.129700 0.165701 0.000119 0.006674 69.743996 0.006674 500.129761
27 500.129700 0.165701 0.000119 -0.004939 69.046219 -0.001383 500.129761
[Rear_Toe2_02]
25 340.494507 0.000238 -0.000954 0.001182 -76.444901 0.001182 340.494507
26 340.494507 0.000238 -0.000954 0.001181 -77.361351 0.001181 340.494507
27 340.494507 0.000238 -0.000954 0.001180 -78.278229 0.001180 340.494507
[Rear_Toe2_03]
25 433.103577 0.000000 0.000238 0.014556 80.750595 0.014556 433.103546
26 433.103577 0.000000 0.000238 0.017604 82.353943 0.017604 433.103546
27 433.103577 0.000000 0.000238 0.022266 83.957207 0.022266 433.103546
[Rear_Toe3_02]
25 340.494141 -0.000358 -0.000477 0.001182 -76.363091 0.001182 340.494171
26 340.494141 -0.000358 -0.000477 0.001181 -77.278229 0.001181 340.494171
27 340.494141 -0.000358 -0.000477 0.001180 -78.193581 0.001180 340.494171
[Rear_Toe3_03]
25 433.103577 0.001431 -0.000238 0.014315 80.594894 0.014315 433.103546
26 433.103577 0.001431 -0.000238 0.003519 82.186287 0.005272 433.103546
27 433.103577 0.001431 -0.000238 -0.012341 83.777664 -0.008839 433.103546
[Back_Bone]
25 1312.175781 -701.934692 0.000954 2.107728 -3.291730 -83.853790 1488.125488
26 1312.175781 -701.934692 0.000954 2.333966 -2.968246 -83.663704 1488.125488
27 1312.175781 -701.934692 0.000954 2.504240 -2.429769 -83.952141 1488.125488
[Head]
25 1406.159424 809.709290 0.001431 0.050911 -3.181221 23.883076 1622.625488
26 1406.159424 809.709290 0.001431 0.481500 -3.253167 23.597954 1622.625488
27 1406.159424 809.709290 0.001431 0.912446 -3.322964 23.312283 1622.625488
[Motor_Bone]
25 1158.364380 -417.834747 0.000477 -1.034489 -1.094876 -107.077385 1231.419434
26 1158.364380 -417.834747 0.000477 -2.188160 -1.022762 -107.007042 1231.419434
27 1158.364380 -417.834747 0.000477 -2.074372 -0.843160 -106.828514 1231.419434
[Ping_Mechanism]
25 1329.318726 -457.676392 -28.949226 0.000103 -0.000053 82.120995 1406.198486
26 1328.081421 -458.033447 -21.188383 0.000103 -0.000053 82.120995 1405.006714
27 1326.844116 -458.390472 -13.427549 0.000103 -0.000053 82.120995 1403.858032
[BN_LookIK]
25 193.241119 1380.371704 -0.002861 0.000000 89.965736 -31.038179 1393.832153
26 193.241119 1380.371704 -0.002861 0.000000 89.965736 -31.038179 1393.832153
27 193.241119 1380.371704 -0.002861 0.000000 89.965736 -31.038179 1393.832153
[bottomMouth]
25 -435.092926 615.759399 -0.000954 -0.000022 0.000016 73.527184 753.966492
26 -435.092926 615.759399 -0.000954 -0.000022 0.000016 73.527184 753.966492
27 -435.092926 615.759399 -0.000954 -0.000022 0.000016 73.527184 753.966492
[L_Mouth01]
25 554.440979 7.658243 838.222046 150.204178 23.759130 109.605339 1005.027161
26 554.440979 7.658243 838.222046 150.204178 23.759130 109.605339 1005.027161
27 554.440979 7.658243 838.222046 150.204178 23.759130 109.605339 1005.027161
[L_mouthFront]
25 551.629089 934.514771 339.150421 0.000081 2.804060 79.119301 1136.941284
26 551.629089 934.514771 339.150421 0.000081 2.804060 79.119301 1136.941284
27 551.629089 934.514771 339.150421 0.000081 2.804060 79.119301 1136.941284
[mouthGun]
25 55.332661 1627.420898 0.000000 0.000023 0.000009 -11.038128 1628.361328
26 55.332661 1627.420898 0.000000 0.000023 0.000009 -11.038128 1628.361328
27 55.332661 1627.420898 0.000000 0.000023 0.000009 -11.038128 1628.361328
[R_Mouth01]
25 554.442383 7.659197 -838.223938 29.795891 -23.759109 109.605331 1005.029541
26 554.442383 7.659197 -838.223938 29.795891 -23.759109 109.605331 1005.029541
27 554.442383 7.659197 -838.223938 29.795891 -23.759109 109.605331 1005.029541
[R_mouthFront]
25 551.629089 934.514282 -339.151367 0.000029 -2.803930 79.119133 1136.941162
26 551.629089 934.514282 -339.151367 0.000029 -2.803930 79.119133 1136.941162
27 551.629089 934.514282 -339.151367 0.000029 -2.803930 79.119133 1136.941162
[TopMouth]
25 461.269867 -56.106091 -0.008583 -0.000059 -0.000268 92.025169 464.669525
26 461.269867 -56.106091 -0.008583 -0.000059 -0.000268 92.025169 464.669525
27 461.269867 -56.106091 -0.008583 -0.000059 -0.000268 92.025169 464.669525
[weapon_bone]
25 -987.239868 1448.372803 0.001431 0.000000 89.965736 -31.038221 1752.833740
26 -987.239868 1448.372803 0.001431 0.000000 89.965736 -31.038221 1752.833740
27 -987.239868 1448.372803 0.001431 0.000000 89.965736 -31.038221 1752.833740
